<?xml version="1.0" standalone="no"?>
<!DOCTYPE svg PUBLIC "-//W3C//DTD SVG 20010904//EN"
 "http://www.w3.org/TR/2001/REC-SVG-20010904/DTD/svg10.dtd">
<svg version="1.0" xmlns="http://www.w3.org/2000/svg"
 width="140.000000pt" height="140.000000pt" viewBox="0 0 140.000000 140.000000"
 preserveAspectRatio="xMidYMid meet">

<g transform="translate(0.000000,140.000000) scale(0.100000,-0.100000)"
fill="#000000" stroke="none">
<path d="M793 1246 c-48 -16 -75 -34 -203 -137 -122 -98 -193 -172 -280 -289
-147 -201 -177 -318 -84 -336 74 -14 147 35 361 240 62 59 137 140 166 179
166 221 203 301 157 339 -26 21 -58 22 -117 4z m87 -75 c0 -10 -18 -46 -40
-79 -29 -45 -44 -60 -56 -55 -12 4 -15 0 -12 -18 2 -18 -1 -23 -14 -21 -14 2
-18 -4 -18 -24 0 -33 -75 -125 -96 -117 -10 4 -14 -3 -14 -23 -1 -26 -2 -27
-14 -11 -21 28 -37 22 -25 -10 7 -20 6 -30 -3 -39 -70 -65 -239 -211 -262
-225 -32 -19 -50 -16 -84 14 -15 14 -20 27 -16 41 24 82 150 260 265 374 90
87 263 219 304 231 37 10 85 -11 85 -38z"/>
<path d="M730 1140 c-20 -12 -13 -16 40 -24 l45 -6 -24 20 c-26 22 -39 24 -61
10z"/>
<path d="M700 1101 c0 -9 48 -21 79 -21 25 1 -30 29 -56 30 -13 0 -23 -4 -23
-9z"/>
<path d="M575 1005 l-30 -13 44 -1 c26 -1 52 -8 63 -18 29 -26 33 -7 5 21 -29
29 -40 31 -82 11z"/>
<path d="M544 956 c-17 -13 -12 -14 51 -14 61 0 67 2 50 14 -24 18 -76 18
-101 0z"/>
<path d="M438 869 c-30 -17 -20 -24 26 -21 24 2 53 -1 65 -7 28 -16 27 3 -1
23 -26 18 -65 20 -90 5z"/>
<path d="M416 821 c5 -5 32 -12 59 -16 46 -6 49 -5 31 9 -21 17 -107 23 -90 7z"/>
<path d="M322 733 c-19 -8 -4 -23 24 -23 14 0 34 -5 46 -11 29 -16 37 0 9 22
-22 18 -52 23 -79 12z"/>
<path d="M318 692 c-39 -8 -15 -22 39 -22 31 0 54 3 50 6 -9 9 -70 20 -89 16z"/>
<path d="M1135 1061 c-51 -13 -85 -35 -230 -152 -303 -243 -566 -490 -604
-566 -31 -63 -28 -117 9 -155 28 -27 35 -30 73 -24 66 10 174 70 308 171 165
123 249 203 392 369 154 179 187 248 153 315 -11 21 -58 55 -69 50 -1 -1 -15
-4 -32 -8z m73 -78 c6 -41 -34 -108 -133 -221 -69 -79 -101 -110 -108 -103
-18 18 -29 13 -22 -9 9 -29 -3 -44 -23 -28 -13 11 -14 10 -8 -15 5 -23 3 -30
-13 -34 -10 -3 -22 -14 -25 -26 -5 -20 -6 -20 -26 -2 -20 18 -20 18 -20 -13 0
-27 -11 -41 -76 -94 -116 -96 -214 -159 -234 -153 -12 4 -19 -1 -23 -16 -4
-15 -11 -20 -23 -15 -10 4 -21 0 -29 -10 -17 -24 -107 -31 -124 -10 -17 20 -1
71 37 118 96 122 601 562 725 634 55 32 120 30 125 -3z"/>
<path d="M1030 928 c-23 -11 -22 -12 25 -18 28 -4 59 -10 70 -14 15 -6 13 -2
-8 18 -30 28 -48 31 -87 14z"/>
<path d="M1018 894 c-39 -11 -15 -24 44 -24 43 0 59 3 52 10 -13 13 -72 21
-96 14z"/>
<path d="M832 778 c-13 -7 -21 -17 -18 -25 3 -7 -1 -13 -11 -13 -9 0 -14 -2
-12 -4 7 -7 152 -36 157 -32 6 6 -34 26 -82 41 l-41 13 55 1 c36 1 64 -5 78
-15 31 -22 28 0 -4 25 -29 23 -84 27 -122 9z"/>
<path d="M660 618 c-23 -11 -20 -12 33 -18 42 -4 63 -11 73 -24 17 -24 24 -18
13 12 -14 37 -70 51 -119 30z"/>
<path d="M624 564 c-18 -14 -17 -15 21 -10 22 3 58 1 80 -4 50 -11 56 -6 16
14 -38 20 -92 20 -117 0z"/>
<path d="M462 423 c-18 -9 -37 -24 -43 -34 -11 -21 -1 -25 96 -33 l60 -5 -40
19 c-22 11 -53 19 -69 17 -27 -4 -27 -3 -11 10 25 17 69 17 106 -2 29 -15 29
-15 17 4 -12 20 -49 41 -71 41 -7 0 -27 -8 -45 -17z"/>
</g>
</svg>
